#!OML:ASF E:\Mandelcareful walks\Project 1\Capture day 1\Session 1\Subject1.ASF
:FULLY-SPECIFIED
:DEGREES
2321
root 45.0542 16.7187 10.9342 1079.97 -13.7188 1090.53
lowerback -2.59003 -3.99533 -2.80453
upperback 1.33382 -5.25114 0.918556
thorax 3.16114 -2.68463 2.21749
lowerneck -17.1735 -7.07914 -9.54617
upperneck 33.4319 -11.14 9.20159
head 15.8442 -4.77442 3.4386
rclavicle -5.725e-014 2.22639e-014
rhumerus -36.3885 -16.1804 -74.117
rradius 29.1584
rwrist -8.04426
rhand -7.38318 -32.0642
rfingers 7.12502
rthumb 18.5023 -61.2043
lclavicle -5.725e-014 2.22639e-014
lhumerus -28.7667 -3.92028 92.3531
lradius 36.2237
lwrist 10.1854
lhand -17.2012 -15.0591
lfingers 7.12502
lthumb 9.04123 14.7271
rfemur -14.9977 -5.80375 20.4745
rtibia 27.3627
rfoot -22.2341 -12.8707
rtoes 28.1461
lfemur -12.4816 12.8695 -20.6805
ltibia 65.9284
lfoot 1.06768 4.59258
ltoes -25.4422
2322
root 45.0294 16.7193 11.0004 1079.84 -15.0972 1090.55
lowerback -2.59252 -3.82459 -2.68471
upperback 1.34071 -5.02225 0.727003
thorax 3.12701 -2.5655 1.96945
lowerneck -17.0802 -7.05866 -9.33181
upperneck 33.4723 -11.2095 9.20071
head 15.8344 -4.78389 3.38961
rclavicle -2.127e-014 -1.27222e-014
rhumerus -36.1356 -15.5815 -75.0623
rradius 30.1192
rwrist -8.07603
rhand -7.62826 -32.1478
rfingers 7.12502
rthumb 18.2665 -61.3101
lclavicle -2.127e-014 -1.27222e-014
lhumerus -29.0853 -4.52054 92.255
lradius 36.1115
lwrist 10.1133
lhand -16.588 -15.0922
lfingers 7.12502
lthumb 9.63291 14.6675
rfemur -14.661 -5.15577 20.5975
rtibia 27.2472
rfoot -22.071 -12.3521
rtoes 27.4594
lfemur -13.0846 12.1521 -20.7663
ltibia 65.8712
lfoot 0.276106 5.08889
ltoes -25.6697
2323
root 45.0032 16.7198 11.061 1079.81 -16.6238 1090.42
lowerback -2.5185 -3.7017 -2.53184
upperback 1.2532 -4.86526 0.695869
thorax 2.97005 -2.4813 1.87186
lowerneck -17.0775 -6.97433 -9.3168
upperneck 33.6594 -11.1049 9.14371
head 15.905 -4.7504 3.38863
rclavicle -4.96962e-015 9.54166e-015
rhumerus -36.0901 -14.5177 -75.9959
rradius 31.5372
rwrist -8.48416
rhand -8.58799 -32.7167
rfingers 7.12502
rthumb 17.343 -61.9629
lclavicle -4.96962e-015 9.54166e-015
lhumerus -29.4347 -4.61469 92.2373
lradius 35.8671
lwrist 9.85612
lhand -16.2438 -15.2093
lfingers 7.12502
lthumb 9.96491 14.5348
rfemur -14.3892 -4.82102 20.894
rtibia 27.1055
rfoot -21.8036 -11.2946
rtoes 27.2935
lfemur -13.7431 11.3783 -20.6549
ltibia 65.76
lfoot -0.728953 5.73291
ltoes -24.5997
2324
root 44.9783 16.7256 11.1208 1079.8 -18.2253 1090.32
lowerback -2.58142 -3.60547 -2.58232
upperback 1.29522 -4.73606 0.798156
thorax 3.05483 -2.42037 2.0063
lowerneck -17.2183 -6.87702 -9.42891
upperneck 33.7211 -10.9069 9.10041
head 15.9464 -4.68706 3.42732
rclavicle -8.13029e-014 1.43125e-014
rhumerus -35.3768 -13.1646 -76.9505
rradius 32.4198
rwrist -9.07422
rhand -8.82997 -33.2609
rfingers 7.12502
rthumb 17.1101 -62.5275
lclavicle -8.13029e-014 1.43125e-014
lhumerus -29.4256 -4.18616 92.2343
lradius 35.5183
lwrist 9.72162
lhand -16.7229 -15.5123
lfingers 7.12502
lthumb 9.50273 14.2534
rfemur -14.1781 -4.07021 21.0817
rtibia 26.9417
rfoot -21.7041 -10.3114
rtoes 28.2895
lfemur -14.4127 10.5463 -20.5914
ltibia 65.5661
lfoot -1.79817 6.46421
ltoes -23.598
2325
root 44.9516 16.7272 11.1845 1079.69 -19.8511 1090.32
lowerback -2.65477 -3.4123 -2.66702
upperback 1.37337 -4.47325 0.808882
thorax 3.16938 -2.29338 2.07267
lowerneck -17.4212 -6.84696 -9.37309
upperneck 33.8432 -10.8355 8.96427
head 16.0294 -4.66396 3.37069
rclavicle 5.02925e-014 -1.90833e-014
rhumerus -34.5436 -12.1328 -77.7946
rradius 32.8532
rwrist -9.43583
rhand -5.96453 -33.4715
rfingers 7.12502
rthumb 19.8665 -62.4761
lclavicle 5.02925e-014 -1.90833e-014
lhumerus -29.4985 -4.33263 92.2744
lradius 35.2735
lwrist 9.85614
lhand -20.0087 -16.0943
lfingers 7.12502
lthumb 6.33141 13.7911
rfemur -13.8603 -3.1573 21.2047
rtibia 26.7982
rfoot -21.5887 -9.67475
rtoes 28.4112
lfemur -14.9237 9.7793 -20.5605
ltibia 65.259
lfoot -3.09525 7.24471
ltoes -22.0114
2326
root 44.9186 16.7268 11.2492 1079.66 -21.3013 1090.54
lowerback -2.86926 -3.32601 -2.95097
upperback 1.35385 -4.33916 0.748351
thorax 3.27908 -2.23259 2.16394
lowerneck -17.638 -6.78786 -9.46579
upperneck 34.0228 -10.7407 8.99238
head 16.1675 -4.62951 3.4186
rclavicle 4.19436e-014 -1.11319e-014
rhumerus -33.9267 -11.3397 -78.4853
rradius 33.3768
rwrist -9.70365
rhand -7.48206 -31.9053
rfingers 7.12502
rthumb 18.4071 -61.0544
lclavicle 4.19436e-014 -1.11319e-014
lhumerus -29.7245 -4.51161 92.2088
lradius 35.0478
lwrist 9.96321
lhand -19.9549 -16.0522
lfingers 7.12502
lthumb 6.38333 13.8317
rfemur -13.6974 -2.28068 21.1352
rtibia 26.6511
rfoot -21.4891 -9.34712
rtoes 27.3311
lfemur -15.5709 8.9126 -20.7674
ltibia 64.8584
lfoot -4.4072 8.07847
ltoes -20.1999
2327
root 44.8864 16.7241 11.3155 1079.44 -22.6402 1090.75
lowerback -2.97046 -3.26097 -3.19504
upperback 1.44713 -4.23588 0.664568
thorax 3.43811 -2.18862 2.21069
lowerneck -17.7911 -6.73614 -9.54911
upperneck 34.0131 -10.6535 9.06298
head 16.1997 -4.59363 3.47768
rclavicle 1.07344e-014 4.77083e-015
rhumerus -33.3002 -10.702 -79.1374
rradius 34.0785
rwrist -10.211
rhand -5.1156 -33.4349
rfingers 7.12502
rthumb 20.6823 -62.3529
lclavicle 1.07344e-014 4.77083e-015
lhumerus -29.73 -4.18182 91.9179
lradius 34.6872
lwrist 10.1725
lhand -19.2654 -16.0892
lfingers 7.12502
lthumb 7.04895 13.7734
rfemur -13.333 -1.61455 21.0544
rtibia 26.5141
rfoot -21.5896 -8.87635
rtoes 26.5672
lfemur -16.0119 7.95855 -20.9731
ltibia 64.396
lfoot -5.41554 9.00884
ltoes -19.4184
2328
root 44.8535 16.7197 11.3827 1079.21 -23.9836 1090.7
lowerback -3.03562 -3.15802 -3.22619
upperback 1.63496 -4.09279 0.639138
thorax 3.66055 -2.12332 2.20133
lowerneck -17.9293 -6.68995 -9.25263
upperneck 33.8694 -10.5634 8.81371
head 16.1044 -4.54875 3.32576
rclavicle 1.03964e-013 -1.43125e-014
rhumerus -32.4371 -9.92462 -79.8412
rradius 34.6008
rwrist -10.9833
rhand -4.71231 -33.4694
rfingers 7.12502
rthumb 21.0698 -62.3447
lclavicle 1.03964e-013 -1.43125e-014
lhumerus -29.675 -3.98817 91.6598
lradius 34.3513
lwrist 10.3851
lhand -18.8949 -15.9326
lfingers 7.12502
lthumb 7.40656 13.9178
rfemur -12.8161 -1.00271 21.2214
rtibia 26.3863
rfoot -21.7412 -8.10606
rtoes 27.3571
lfemur -16.3401 6.94645 -20.8956
ltibia 63.8998
lfoot -6.43736 10.0469
ltoes -18.6661
2329
root 44.8258 16.7184 11.4496 1079.11 -25.5614 1090.65
lowerback -3.10056 -2.9686 -3.11889
upperback 1.73538 -3.8405 0.59675
thorax 3.77436 -1.99737 2.10914
lowerneck -18.2369 -6.72115 -9.1378
upperneck 33.8829 -10.5752 8.66494
head 16.1652 -4.55058 3.23001
rclavicle 6.10269e-014 1.11319e-014
rhumerus -31.5736 -9.10591 -80.4948
rradius 35.005
rwrist -11.6106
rhand -3.09926 -34.4573
rfingers 7.12502
rthumb 22.6187 -63.152
lclavicle 6.10269e-014 1.11319e-014
lhumerus -29.7314 -4.02343 91.5224
lradius 34.03
lwrist 10.374
lhand -19.2058 -15.8951
lfingers 7.12502
lthumb 7.10651 13.9656
rfemur -12.4619 -0.412937 21.3455
rtibia 26.2326
rfoot -21.5467 -6.95278
rtoes 28.6116
lfemur -16.8254 6.21125 -20.8688
ltibia 63.3541
lfoot -7.47849 11.1626
ltoes -18.4396
2330
root 44.7985 16.7235 11.5192 1079.23 -27.1095 1090.74
lowerback -3.38624 -2.86801 -3.11769
upperback 1.68602 -3.69737 0.600455
thorax 3.87565 -1.92644 2.10922
lowerneck -18.6341 -6.75245 -9.34626
upperneck 34.0191 -10.529 8.64084
head 16.3367 -4.55141 3.25903
rclavicle -4.87022e-014 -6.36111e-015
rhumerus -30.7944 -8.50528 -81.0177
rradius 35.4217
rwrist -11.9485
rhand -4.4583 -34.2252
rfingers 7.12502
rthumb 21.3138 -63.0731
lclavicle -4.87022e-014 -6.36111e-015
lhumerus -29.8352 -3.51348 91.3517
lradius 33.4843
lwrist 9.91863
lhand -19.3349 -16.1192
lfingers 7.12502
lthumb 6.98184 13.7457
rfemur -12.4215 -0.0617655 21.3368
rtibia 26.0701
rfoot -21.1801 -5.8829
rtoes 28.9819
lfemur -17.637 5.63283 -21.0213
ltibia 62.7253
lfoot -8.22391 12.2355
ltoes -18.8668
2331
root 44.7694 16.7262 11.5867 1079.29 -28.7964 1090.61
lowerback -3.52896 -2.85045 -3.0336
upperback 1.6178 -3.67828 0.722012
thorax 3.88695 -1.91559 2.18386
lowerneck -18.7271 -6.55254 -9.51359
upperneck 34.0194 -10.1542 8.619
head 16.3186 -4.42367 3.35451
rclavicle -3.04141e-014 2.54444e-014
rhumerus -30.0663 -7.72208 -81.663
rradius 35.7915
rwrist -12.1895
rhand -6.214 -32.8719
rfingers 7.12502
rthumb 19.6266 -61.9011
lclavicle -3.04141e-014 2.54444e-014
lhumerus -30.1983 -2.70384 91.0661
lradius 33.0372
lwrist 9.63434
lhand -19.5511 -16.1574
lfingers 7.12502
lthumb 6.77317 13.7142
rfemur -12.2236 0.19235 21.5784
rtibia 25.9341
rfoot -20.9095 -4.84679
rtoes 28.6296
lfemur -18.2176 5.17301 -20.8336
ltibia 62.0377
lfoot -9.14156 12.9076
ltoes -17.3227
2332
root 44.7384 16.7297 11.6535 1079.29 -30.6071 1090.5
lowerback -3.63507 -2.7406 -2.94694
upperback 1.59541 -3.53515 0.78448
thorax 3.91308 -1.84303 2.20637
lowerneck -18.6841 -6.34206 -9.43703
upperneck 33.9348 -9.80819 8.48032
head 16.2017 -4.29532 3.34943
rclavicle 1.42926e-013 4.77083e-015
rhumerus -29.4809 -6.51407 -82.466
rradius 36.3356
rwrist -12.5179
rhand -5.70572 -33.6632
rfingers 7.12502
rthumb 20.1152 -62.6419
lclavicle 1.42926e-013 4.77083e-015
lhumerus -30.6095 -2.23255 90.7663
lradius 32.7767
lwrist 9.66723
lhand -19.7052 -16.0392
lfingers 7.12502
lthumb 6.62446 13.8372
rfemur -11.9544 0.633758 21.773
rtibia 25.795
rfoot -20.6385 -3.6515
rtoes 28.2696
lfemur -18.6498 4.68427 -20.6307
ltibia 61.2945
lfoot -10.3492 13.3006
ltoes -15.107
2333
root 44.7168 16.7293 11.7185 1079.17 -32.0251 1090.55
lowerback -3.55967 -2.6824 -2.87007
upperback 1.56555 -3.46363 0.782018
thorax 3.82994 -1.80417 2.17103
lowerneck -18.7828 -6.21516 -9.18916
upperneck 33.9296 -9.55007 8.09157
head 16.1412 -4.2086 3.18517
rclavicle 7.45443e-014 -7.95139e-015
rhumerus -28.8914 -5.52332 -82.8695
rradius 36.9458
rwrist -13.6177
rhand -4.32664 -34.2997
rfingers 7.12502
rthumb 21.4403 -63.1333
lclavicle 7.45443e-014 -7.95139e-015
lhumerus -30.9043 -1.79161 90.5498
lradius 32.3389
lwrist 9.30314
lhand -19.9828 -15.8938
lfingers 7.12502
lthumb 6.35642 13.9908
rfemur -11.6564 0.884511 21.7568
rtibia 25.6998
rfoot -20.3417 -2.4749
rtoes 28.5414
lfemur -19.1389 3.85745 -20.6507
ltibia 60.5144
lfoot -11.3262 13.6809
ltoes -14.3797
2334
root 44.6891 16.7267 11.7858 1079.07 -33.5988 1090.58
lowerback -3.55405 -2.56098 -2.74482
upperback 1.50988 -3.30724 0.754576
thorax 3.75011 -1.72126 2.08649
lowerneck -18.8787 -6.09818 -9.13285
upperneck 33.956 -9.34433 7.96045
head 16.137 -4.13493 3.1582
rclavicle 4.67144e-014 7.95139e-015
rhumerus -28.4111 -4.44055 -83.3231
rradius 37.5343
rwrist -14.4319
rhand -3.31491 -35.1183
rfingers 7.12502
rthumb 22.4117 -63.8381
lclavicle 4.67144e-014 7.95139e-015
lhumerus -31.3434 -1.62628 90.4313
lradius 31.995
lwrist 9.17639
lhand -20.7508 -15.4645
lfingers 7.12502
lthumb 5.61491 14.4411
rfemur -11.3838 1.44289 21.753
rtibia 25.6496
rfoot -20.0859 -1.29977
rtoes 30.2082
lfemur -19.6295 3.26797 -20.5776
ltibia 59.6555
lfoot -12.1565 13.7703
ltoes -13.3728
